<?xml version="1.0" encoding="UTF-8"?>
<svg version="1.1" xmlns="http://www.w3.org/2000/svg" width="188" height="58">
<path d="M0 0 C0.79075928 0.00523682 1.58151855 0.01047363 2.39624023 0.01586914 C3.67724609 0.02070312 3.67724609 0.02070312 4.98413086 0.02563477 C5.88196289 0.03401367 6.77979492 0.04239258 7.70483398 0.05102539 C8.6065332 0.05553711 9.50823242 0.06004883 10.43725586 0.06469727 C12.67234712 0.07652315 14.90730835 0.09300319 17.14233398 0.11352539 C18.85342194 13.53813828 20.39186405 26.97600923 21.68417358 40.44726562 C21.82315187 41.89356893 21.96396559 43.33969701 22.1065979 44.78564453 C22.30650535 46.82146947 22.49805311 48.85811008 22.68920898 50.89477539 C22.80103516 52.07104492 22.91286133 53.24731445 23.02807617 54.45922852 C23.06578125 55.33514648 23.10348633 56.21106445 23.14233398 57.11352539 C22.14233398 58.11352539 22.14233398 58.11352539 19.63842773 58.21118164 C18.6290918 58.19958008 17.61975586 58.18797852 16.57983398 58.17602539 C15.56791992 58.16700195 14.55600586 58.15797852 13.51342773 58.14868164 C12.33973633 58.1312793 12.33973633 58.1312793 11.14233398 58.11352539 C10.48233398 55.14352539 9.82233398 52.17352539 9.14233398 49.11352539 C7.82233398 49.11352539 6.50233398 49.11352539 5.14233398 49.11352539 C4.99795898 50.41290039 4.85358398 51.71227539 4.70483398 53.05102539 C4.26733398 56.98852539 4.26733398 56.98852539 3.14233398 58.11352539 C-0.52421796 58.25652664 -4.1891082 58.15569272 -7.85766602 58.11352539 C-8.16575747 45.71438051 -7.51967916 33.77894563 -5.77636719 21.49975586 C-5.41167753 18.92868126 -5.06599267 16.35553246 -4.72290039 13.78149414 C-4.49934632 12.13942304 -4.27477844 10.49748956 -4.04907227 8.85571289 C-3.94486465 8.0892746 -3.84065704 7.3228363 -3.73329163 6.53317261 C-2.82357856 0.17255408 -2.82357856 0.17255408 0 0 Z M6.14233398 19.11352539 C5.81233398 25.71352539 5.48233398 32.31352539 5.14233398 39.11352539 C6.46233398 39.11352539 7.78233398 39.11352539 9.14233398 39.11352539 C8.81233398 32.51352539 8.48233398 25.91352539 8.14233398 19.11352539 C7.48233398 19.11352539 6.82233398 19.11352539 6.14233398 19.11352539 Z " fill="#DE4EEF" transform="translate(125.857666015625,-0.113525390625)"/>
<path d="M0 0 C6.6 0 13.2 0 20 0 C20.55601724 5.20587303 21.10876677 10.41191294 21.65405273 15.61889648 C21.83945767 17.38080234 22.02656307 19.1425303 22.21557617 20.90405273 C23.53996366 33.26147092 24.47042057 45.5827328 25 58 C16.50390625 58.09765625 16.50390625 58.09765625 14 58 C13 57 13 57 12.90234375 54.93359375 C12.91394531 54.10988281 12.92554687 53.28617188 12.9375 52.4375 C12.94652344 51.61121094 12.95554687 50.78492188 12.96484375 49.93359375 C12.97644531 49.29550781 12.98804687 48.65742187 13 48 C11.02 48 9.04 48 7 48 C6.67 51.3 6.34 54.6 6 58 C2.37 58 -1.26 58 -5 58 C-5.89356192 54.42575233 -6.0373114 52.65544741 -5.67041016 49.12719727 C-5.57345856 48.162621 -5.47650696 47.19804474 -5.37661743 46.20423889 C-5.2652243 45.16875412 -5.15383118 44.13326935 -5.0390625 43.06640625 C-4.929039 41.99631821 -4.8190155 40.92623016 -4.70565796 39.82371521 C-4.47174627 37.56141788 -4.23448923 35.29946432 -3.99414062 33.0378418 C-3.62685666 29.57997986 -3.26954823 26.12120215 -2.9140625 22.66210938 C-2.68548036 20.46348082 -2.45633246 18.26491099 -2.2265625 16.06640625 C-2.11921783 15.03294571 -2.01187317 13.99948517 -1.90127563 12.93470764 C-1.79801971 11.96697922 -1.69476379 10.99925079 -1.58837891 10.00219727 C-1.45394882 8.73122948 -1.45394882 8.73122948 -1.31680298 7.43458557 C-0.99204409 4.93885994 -0.49357856 2.46789282 0 0 Z M9 15 C8.3533402 23.01396246 7.83322777 30.95787245 8 39 C9.32 39 10.64 39 12 39 C11.35169636 26.96768568 11.35169636 26.96768568 10 15 C9.67 15 9.34 15 9 15 Z " fill="#DA48EE" transform="translate(35,0)"/>
<path d="M0 0 C4.23236495 1.71095605 6.18647212 3.82888588 8 8 C8.52137489 11.0118258 8.77193314 13.94390412 9 17 C4.71 17 0.42 17 -4 17 C-4 15.02 -4 13.04 -4 11 C-4.99 11.33 -5.98 11.66 -7 12 C-6.67373993 15.14297201 -6.31560613 16.66743982 -4.109375 18.9921875 C-3.33078125 19.61351563 -2.5521875 20.23484375 -1.75 20.875 C3.08027422 24.9438138 6.95957614 28.87872841 9 35 C9.63904395 43.40588581 9.48445703 49.753318 4 56.4375 C-0.60145386 58.83409055 -4.91862429 58.61185434 -10 58 C-13.60874354 56.77560487 -15.32735995 55.86915959 -17.64453125 52.875 C-19.35160718 49.25422801 -19.333397 46.09679129 -19.1875 42.1875 C-19.16719727 41.14819336 -19.16719727 41.14819336 -19.14648438 40.08789062 C-19.11138845 38.39158735 -19.05758943 36.69568864 -19 35 C-17.18757948 34.97312721 -15.37504767 34.95366285 -13.5625 34.9375 C-12.55316406 34.92589844 -11.54382813 34.91429687 -10.50390625 34.90234375 C-8 35 -8 35 -7 36 C-6.92794489 37.68608966 -6.91613932 39.37500659 -6.9375 41.0625 C-6.94652344 41.98160156 -6.95554687 42.90070312 -6.96484375 43.84765625 C-6.97644531 44.55792969 -6.98804688 45.26820312 -7 46 C-5.515 45.505 -5.515 45.505 -4 45 C-3.39314477 40.02378712 -4.4921209 37.53567661 -7.43359375 33.72265625 C-9.05431325 31.94026897 -10.7571075 30.45640197 -12.625 28.9375 C-16.75974991 25.48737099 -18.68338534 22.61473905 -19.34765625 17.12890625 C-19.73563356 9.00127901 -19.73563356 9.00127901 -16.75 4.9375 C-15.8425 4.298125 -14.935 3.65875 -14 3 C-13.07767578 2.20916016 -13.07767578 2.20916016 -12.13671875 1.40234375 C-8.38150777 -1.06222799 -4.33097964 -0.51324921 0 0 Z " fill="#EE4FF4" transform="translate(19,0)"/>
<path d="M0 0 C7.59 0 15.18 0 23 0 C23 3.96 23 7.92 23 12 C19.37 12.33 15.74 12.66 12 13 C12 15.31 12 17.62 12 20 C15.3 20 18.6 20 22 20 C22 23.96 22 27.92 22 32 C18.7 32 15.4 32 12 32 C12.00523682 32.7520874 12.01047363 33.5041748 12.01586914 34.27905273 C12.03657227 37.66519342 12.04963877 41.05132084 12.0625 44.4375 C12.07087891 45.62150391 12.07925781 46.80550781 12.08789062 48.02539062 C12.09111328 49.15009766 12.09433594 50.27480469 12.09765625 51.43359375 C12.10289307 52.47572021 12.10812988 53.51784668 12.11352539 54.59155273 C12 57 12 57 11 58 C9.16884117 58.09851171 7.33380067 58.12972629 5.5 58.125 C4.4996875 58.12757812 3.499375 58.13015625 2.46875 58.1328125 C0 58 0 58 -1 57 C-1.09859834 55.39991558 -1.12798751 53.79550158 -1.12939453 52.19238281 C-1.13254669 51.1675177 -1.13569885 50.14265259 -1.13894653 49.08673096 C-1.1369223 47.97014099 -1.13489807 46.85355103 -1.1328125 45.703125 C-1.13376923 44.56220398 -1.13472595 43.42128296 -1.13571167 42.24578857 C-1.13639391 39.82466578 -1.1345366 37.40354118 -1.13037109 34.98242188 C-1.12504304 31.27990582 -1.13030448 27.57751216 -1.13671875 23.875 C-1.13605759 21.5260414 -1.13477565 19.17708287 -1.1328125 16.828125 C-1.13483673 15.71963196 -1.13686096 14.61113892 -1.13894653 13.46905518 C-1.13579437 12.43158142 -1.13264221 11.39410767 -1.12939453 10.32519531 C-1.12859894 9.41554016 -1.12780334 8.50588501 -1.12698364 7.56866455 C-1 5 -1 5 0 0 Z " fill="#3D83F2" transform="translate(78,0)"/>
<path d="M0 0 C3.96 0 7.92 0 12 0 C12 15.51 12 31.02 12 47 C15.96 47 19.92 47 24 47 C24.09765625 54.71484375 24.09765625 54.71484375 24 57 C23 58 23 58 20.77514648 58.11352539 C19.81680908 58.10828857 18.85847168 58.10305176 17.87109375 58.09765625 C16.31938477 58.09282227 16.31938477 58.09282227 14.73632812 58.08789062 C13.64771484 58.07951172 12.55910156 58.07113281 11.4375 58.0625 C9.7987793 58.05573242 9.7987793 58.05573242 8.12695312 58.04882812 C5.41791505 58.03699826 2.70898401 58.02051543 0 58 C-0.16977575 52.15101352 -0.33006379 46.30186508 -0.48217773 40.45239258 C-0.53501225 38.46925137 -0.59028232 36.48617329 -0.64819336 34.50317383 C-0.98443041 22.92784797 -1.08399418 11.53962103 0 0 Z " fill="#E14CEF" transform="translate(151,0)"/>
<path d="M0 0 C3.63 0 7.26 0 11 0 C11 19.14 11 38.28 11 58 C7.37 58 3.74 58 0 58 C-1.70565618 56.29434382 -1.12752055 54.09266505 -1.12939453 51.76171875 C-1.13254669 50.64385986 -1.13569885 49.52600098 -1.13894653 48.37426758 C-1.1369223 47.15763428 -1.13489807 45.94100098 -1.1328125 44.6875 C-1.13376923 43.44830811 -1.13472595 42.20911621 -1.13571167 40.93237305 C-1.13639374 38.30611719 -1.13503538 35.67995367 -1.13037109 33.05371094 C-1.12467381 29.68071286 -1.12795302 26.30779435 -1.13394356 22.93479919 C-1.1384177 19.72736323 -1.13528882 16.519937 -1.1328125 13.3125 C-1.13483673 12.0958667 -1.13686096 10.8792334 -1.13894653 9.62573242 C-1.13579437 8.50787354 -1.13264221 7.39001465 -1.12939453 6.23828125 C-1.12859894 5.24868408 -1.12780334 4.25908691 -1.12698364 3.23950195 C-1 1 -1 1 0 0 Z " fill="#DE4DEF" transform="translate(63,0)"/>
<path d="M0 0 C1.51400391 0.01740234 1.51400391 0.01740234 3.05859375 0.03515625 C4.07050781 0.04417969 5.08242187 0.05320313 6.125 0.0625 C7.29869141 0.07990234 7.29869141 0.07990234 8.49609375 0.09765625 C8.51922258 7.51225567 8.5370116 14.92684736 8.54790592 22.34147549 C8.55313357 25.78405973 8.56022906 29.22661937 8.5715332 32.66918945 C8.5844361 36.62320668 8.58932293 40.57721381 8.59375 44.53125 C8.59891129 45.77289413 8.60407257 47.01453827 8.60939026 48.29380798 C8.60946579 49.43491531 8.60954132 50.57602264 8.60961914 51.75170898 C8.61183975 52.76208725 8.61406036 53.77246552 8.61634827 54.8134613 C8.49609375 57.09765625 8.49609375 57.09765625 7.49609375 58.09765625 C5.83180324 58.19589562 4.16327444 58.22739256 2.49609375 58.22265625 C1.13484375 58.22652344 1.13484375 58.22652344 -0.25390625 58.23046875 C-2.50390625 58.09765625 -2.50390625 58.09765625 -3.50390625 57.09765625 C-3.60278417 55.3538309 -3.63189657 53.60600082 -3.63330078 51.859375 C-3.63645294 50.74151611 -3.6396051 49.62365723 -3.64285278 48.47192383 C-3.64082855 47.25529053 -3.63880432 46.03865723 -3.63671875 44.78515625 C-3.63767548 43.54596436 -3.6386322 42.30677246 -3.63961792 41.0300293 C-3.64029999 38.40377344 -3.63894163 35.77760992 -3.63427734 33.15136719 C-3.62858006 29.77836911 -3.63185927 26.4054506 -3.63784981 23.03245544 C-3.64232395 19.82501948 -3.63919507 16.61759325 -3.63671875 13.41015625 C-3.63874298 12.19352295 -3.64076721 10.97688965 -3.64285278 9.72338867 C-3.63970062 8.60552979 -3.63654846 7.4876709 -3.63330078 6.3359375 C-3.63250519 5.34634033 -3.63170959 4.35674316 -3.63088989 3.3371582 C-3.4501574 0.14973365 -3.20669043 0.12506593 0 0 Z " fill="#D946EF" transform="translate(179.50390625,-0.09765625)"/>
<path d="M0 0 C6.6 0 13.2 0 20 0 C22.28571429 18.14285714 22.28571429 18.14285714 22 26 C21.34 25.34 20.68 24.68 20 24 C17.82184635 23.79512527 17.82184635 23.79512527 15.4375 23.9375 C13.95918728 23.99190191 12.47917459 24.02026267 11 24 C10.67 23.67 10.34 23.34 10 23 C9.34 24.32 8.68 25.64 8 27 C7.67 26.34 7.34 25.68 7 25 C1.8306511 25.40556131 1.8306511 25.40556131 -3 27 C-2.69199513 23.43709646 -2.37780401 19.87476442 -2.0625 16.3125 C-1.97548828 15.30509766 -1.88847656 14.29769531 -1.79882812 13.25976562 C-1.71181641 12.28330078 -1.62480469 11.30683594 -1.53515625 10.30078125 C-1.456604 9.40528564 -1.37805176 8.50979004 -1.29711914 7.5871582 C-1.00438316 5.03816628 -0.50318425 2.51592126 0 0 Z " fill="#3C99E7" transform="translate(35,0)"/>
<path d="M0 0 C6.27 0 12.54 0 19 0 C20.27493696 8.12772311 21.2491018 15.77964053 21 24 C17.37 23.67 13.74 23.34 10 23 C10 21.68 10 20.36 10 19 C9.34 19 8.68 19 8 19 C8 20.65 8 22.3 8 24 C4.37 23.67 0.74 23.34 -3 23 C-2.88496731 20.4783624 -2.75825223 17.9581881 -2.625 15.4375 C-2.57859375 14.38079102 -2.57859375 14.38079102 -2.53125 13.30273438 C-2.47324219 12.25375977 -2.47324219 12.25375977 -2.4140625 11.18359375 C-2.3826416 10.54993896 -2.3512207 9.91628418 -2.31884766 9.26342773 C-1.87483267 6.11146531 -0.87446011 3.06061039 0 0 Z " fill="#3C88EF" transform="translate(124,0)"/>
<path d="M0 0 C4.23236495 1.71095605 6.18647212 3.82888588 8 8 C8.52137489 11.0118258 8.77193314 13.94390412 9 17 C4.71 17 0.42 17 -4 17 C-4 15.02 -4 13.04 -4 11 C-4.99 11.33 -5.98 11.66 -7 12 C-6.67010597 17.44325154 -3.54262773 20.15587204 0 24 C-4.62 24 -9.24 24 -14 24 C-14.33 24.99 -14.66 25.98 -15 27 C-18.90012755 21.63732461 -19.68026298 17.36863508 -19.45703125 10.74609375 C-19 8 -19 8 -16.75 4.9375 C-15.8425 4.298125 -14.935 3.65875 -14 3 C-13.07767578 2.20916016 -13.07767578 2.20916016 -12.13671875 1.40234375 C-8.38150777 -1.06222799 -4.33097964 -0.51324921 0 0 Z " fill="#3D89EF" transform="translate(19,0)"/>
<path d="M0 0 C6.93 0 13.86 0 21 0 C21 1.65 21 3.3 21 5 C16.545 5.495 16.545 5.495 12 6 C12.00523682 6.7520874 12.01047363 7.5041748 12.01586914 8.27905273 C12.03657227 11.66519342 12.04963877 15.05132084 12.0625 18.4375 C12.07087891 19.62150391 12.07925781 20.80550781 12.08789062 22.02539062 C12.09111328 23.15009766 12.09433594 24.27480469 12.09765625 25.43359375 C12.10289307 26.47572021 12.10812988 27.51784668 12.11352539 28.59155273 C12 31 12 31 11 32 C9.16884117 32.09851171 7.33380067 32.12972629 5.5 32.125 C4.4996875 32.12757812 3.499375 32.13015625 2.46875 32.1328125 C0 32 0 32 -1 31 C-1.01683857 28.70673781 -0.96241325 26.41289688 -0.87890625 24.12109375 C-0.85529526 23.4344313 -0.83168427 22.74776886 -0.80735779 22.04029846 C-0.7305582 19.83916372 -0.64660497 17.63836656 -0.5625 15.4375 C-0.50929557 13.94858443 -0.45655507 12.45965221 -0.40429688 10.97070312 C-0.27579593 7.31352537 -0.13763632 3.65689121 0 0 Z " fill="#DA47EF" transform="translate(78,26)"/>
<path d="M0 0 C14.27816729 -1.22093592 14.27816729 -1.22093592 18.36328125 1.67578125 C21.98145773 6.58680491 23.1398801 10.92892095 23.125 17 C23.12886719 18.5778125 23.12886719 18.5778125 23.1328125 20.1875 C23 23 23 23 22 26 C21.34 26 20.68 26 20 26 C19.505 23.525 19.505 23.525 19 21 C18.34 21 17.68 21 17 21 C17 22.65 17 24.3 17 26 C16.01 25.67 15.02 25.34 14 25 C12.66893378 24.65772583 11.33599921 24.32248257 10 24 C10 21 10 21 10.3125 18.25 C9.88385526 13.79209468 7.96052895 11.2725847 5 8 C3.6078125 6.9171875 3.6078125 6.9171875 2.1875 5.8125 C1.465625 5.214375 0.74375 4.61625 0 4 C0 2.68 0 1.36 0 0 Z " fill="#CC40EF" transform="translate(5,24)"/>
<path d="M0 0 C3.96 0 7.92 0 12 0 C12.05373546 3.95851252 12.0935461 7.91630255 12.125 11.875 C12.14175781 13.00292969 12.15851563 14.13085938 12.17578125 15.29296875 C12.18222656 16.36933594 12.18867188 17.44570313 12.1953125 18.5546875 C12.20578613 19.54968262 12.21625977 20.54467773 12.22705078 21.56982422 C12 24 12 24 10 26 C7.6171875 26.1953125 7.6171875 26.1953125 4.875 26.125 C3.50988281 26.09792969 3.50988281 26.09792969 2.1171875 26.0703125 C1.41851562 26.04710938 0.71984375 26.02390625 0 26 C-1.19354532 17.16776465 -0.77546747 8.84032918 0 0 Z " fill="#4493E4" transform="translate(151,0)"/>
<path d="M0 0 C1.51400391 0.01740234 1.51400391 0.01740234 3.05859375 0.03515625 C4.07050781 0.04417969 5.08242187 0.05320313 6.125 0.0625 C7.29869141 0.07990234 7.29869141 0.07990234 8.49609375 0.09765625 C8.52496887 3.74347312 8.5428496 7.38926088 8.55859375 11.03515625 C8.56697266 12.07607422 8.57535156 13.11699219 8.58398438 14.18945312 C8.58720703 15.17880859 8.59042969 16.16816406 8.59375 17.1875 C8.59898682 18.10394287 8.60422363 19.02038574 8.60961914 19.96459961 C8.49609375 22.09765625 8.49609375 22.09765625 7.49609375 23.09765625 C5.64717429 23.33129506 3.79121344 23.5106926 1.93359375 23.66015625 C0.41572266 23.78583984 0.41572266 23.78583984 -1.1328125 23.9140625 C-1.91527344 23.97464844 -2.69773438 24.03523438 -3.50390625 24.09765625 C-3.53277861 20.28517199 -3.55066117 16.47271555 -3.56640625 12.66015625 C-3.57478516 11.57154297 -3.58316406 10.48292969 -3.59179688 9.36132812 C-3.59501953 8.32685547 -3.59824219 7.29238281 -3.6015625 6.2265625 C-3.60679932 5.2682251 -3.61203613 4.3098877 -3.61743164 3.32250977 C-3.45521948 0.14350025 -3.19605698 0.12465121 0 0 Z " fill="#4D94E6" transform="translate(179.50390625,-0.09765625)"/>
<path d="M0 0 C3.63 0 7.26 0 11 0 C11 7.26 11 14.52 11 22 C7.04 22.33 3.08 22.66 -1 23 C-1.02682987 19.35411831 -1.04675569 15.70843154 -1.0625 12.0625 C-1.07087891 11.02158203 -1.07925781 9.98066406 -1.08789062 8.90820312 C-1.09272461 7.42416992 -1.09272461 7.42416992 -1.09765625 5.91015625 C-1.10289307 4.99371338 -1.10812988 4.07727051 -1.11352539 3.13305664 C-1 1 -1 1 0 0 Z " fill="#3B95EA" transform="translate(63,0)"/>
<path d="M0 0 C2.0078125 0.5234375 2.0078125 0.5234375 3.75390625 2.65234375 C5.19934565 5.96199472 5.31377733 8.24250443 5.1953125 11.8359375 C5.16824219 12.90457031 5.14117187 13.97320312 5.11328125 15.07421875 C5.07847656 15.88246094 5.04367188 16.69070312 5.0078125 17.5234375 C2.24557972 14.76120472 2.42924959 12.31637133 2.0078125 8.5234375 C0.0278125 8.5234375 -1.9521875 8.5234375 -3.9921875 8.5234375 C-3.98058594 9.16152344 -3.96898438 9.79960938 -3.95703125 10.45703125 C-3.94800781 11.28332031 -3.93898438 12.10960937 -3.9296875 12.9609375 C-3.91808594 13.78464844 -3.90648438 14.60835937 -3.89453125 15.45703125 C-3.9921875 17.5234375 -3.9921875 17.5234375 -4.9921875 18.5234375 C-7.4296875 18.7734375 -7.4296875 18.7734375 -9.9921875 18.5234375 C-11.9372875 15.6057875 -12.44495067 13.89806465 -12.9921875 10.5234375 C-13.6521875 11.1834375 -14.3121875 11.8434375 -14.9921875 12.5234375 C-16.3121875 12.8534375 -17.6321875 13.1834375 -18.9921875 13.5234375 C-19.9821875 18.4734375 -20.9721875 23.4234375 -21.9921875 28.5234375 C-22.3221875 28.5234375 -22.6521875 28.5234375 -22.9921875 28.5234375 C-22.76353018 24.83086498 -22.52518224 21.13945235 -22.26171875 17.44921875 C-22.10575348 15.1775507 -21.96795206 12.90418024 -21.87890625 10.62890625 C-21.66396826 6.92583167 -21.53997379 5.02557493 -18.7421875 2.4609375 C-15.95179358 1.50966685 -13.91543042 1.27287382 -10.9921875 1.5234375 C-8.18822612 6.47160464 -9.21868243 11.14026035 -9.9921875 16.5234375 C-8.6721875 16.5234375 -7.3521875 16.5234375 -5.9921875 16.5234375 C-6.2396875 15.316875 -6.2396875 15.316875 -6.4921875 14.0859375 C-7.08057408 9.89368312 -7.29483864 5.75165191 -6.9921875 1.5234375 C-5.12600198 -0.34274802 -2.49441096 0.1748849 0 0 Z " fill="#B54ED4" transform="translate(52.9921875,22.4765625)"/>
<path d="M0 0 C0.33 0 0.66 0 1 0 C3.29612756 17.85649203 3.29612756 17.85649203 3 26 C2.34 25.34 1.68 24.68 1 24 C-1.17815365 23.79512527 -1.17815365 23.79512527 -3.5625 23.9375 C-5.04081272 23.99190191 -6.52082541 24.02026267 -8 24 C-8.33 23.67 -8.66 23.34 -9 23 C-9.66 24.32 -10.32 25.64 -11 27 C-11.33 26.34 -11.66 25.68 -12 25 C-17.1693489 25.40556131 -17.1693489 25.40556131 -22 27 C-21.67 22.38 -21.34 17.76 -21 13 C-17.2857908 12.25715816 -14.65742739 12 -11 12 C-10.01 11.67 -9.02 11.34 -8 11 C-7.67 13.31 -7.34 15.62 -7 18 C-4.36 18.33 -1.72 18.66 1 19 C0.505 9.595 0.505 9.595 0 0 Z " fill="#4BA2E2" transform="translate(54,0)"/>
<path d="M0 0 C0.33 0 0.66 0 1 0 C2.30386819 8.07932613 3.24812636 15.81183003 3 24 C-0.63 23.67 -4.26 23.34 -8 23 C-8 21.68 -8 20.36 -8 19 C-8.66 19 -9.32 19 -10 19 C-10 20.65 -10 22.3 -10 24 C-13.63 23.67 -17.26 23.34 -21 23 C-21 20.36 -21 17.72 -21 15 C-20.67 15.99 -20.34 16.98 -20 18 C-16.7 18 -13.4 18 -10 18 C-10 15.36 -10 12.72 -10 10 C-6.83884224 11.36983503 -6.0072908 11.9890638 -4 15 C-3.67 13.68 -3.34 12.36 -3 11 C-2.01 11.33 -1.02 11.66 0 12 C0 8.04 0 4.08 0 0 Z " fill="#4EA0E1" transform="translate(142,0)"/>
<path d="M0 0 C0.33 0 0.66 0 1 0 C1 1.65 1 3.3 1 5 C1.763125 4.814375 2.52625 4.62875 3.3125 4.4375 C6 4 6 4 9 5 C9 4.01 9 3.02 9 2 C10.98 2 12.96 2 15 2 C14.01 2.66 13.02 3.32 12 4 C12.32989403 9.44325154 15.45737227 12.15587204 19 16 C14.38 16 9.76 16 5 16 C4.67 16.99 4.34 17.98 4 19 C-0.53574091 12.76335625 -0.44701413 7.56198897 0 0 Z " fill="#47A0E2" transform="translate(0,8)"/>
<path d="M0 0 C1.81242052 -0.02687279 3.62495233 -0.04633715 5.4375 -0.0625 C6.44683594 -0.07410156 7.45617187 -0.08570313 8.49609375 -0.09765625 C11 0 11 0 12 1 C12.23363881 2.84891946 12.41303635 4.70488031 12.5625 6.5625 C12.64628906 7.57441406 12.73007813 8.58632813 12.81640625 9.62890625 C12.87699219 10.41136719 12.93757812 11.19382812 13 12 C11 12 9 12 7 12 C6.67 12.99 6.34 13.98 6 15 C4.68 14.01 3.36 13.02 2 12 C1.67 12.66 1.34 13.32 1 14 C-0.20568053 9.32798795 -0.09382426 4.78503708 0 0 Z " fill="#CA4CE6" transform="translate(0,35)"/>
<path d="M0 0 C1.67669157 0.22705198 3.34325741 0.53141418 5 0.875 C6.36125 1.14957031 6.36125 1.14957031 7.75 1.4296875 C10 2 10 2 11 3 C11.22701378 4.48687499 11.39450729 5.98295402 11.53515625 7.48046875 C11.62216797 8.39763672 11.70917969 9.31480469 11.79882812 10.25976562 C11.88583984 11.22591797 11.97285156 12.19207031 12.0625 13.1875 C12.15337891 14.13431641 12.24425781 15.08113281 12.33789062 16.05664062 C12.77076465 20.72061416 13.11823429 25.31003987 13 30 C10.97441119 26.65060119 10.78261013 24.13037449 10.875 20.25 C10.89304688 19.26515625 10.91109375 18.2803125 10.9296875 17.265625 C10.95289063 16.51796875 10.97609375 15.7703125 11 15 C9.68 15.33 8.36 15.66 7 16 C6.67 14.68 6.34 13.36 6 12 C6.66 11.67 7.32 11.34 8 11 C8.33 10.01 8.66 9.02 9 8 C6.83125748 8.50603992 5.00032373 8.99983813 3 10 C2.34227572 13.02934491 2.34227572 13.02934491 2 16 C1.34 16 0.68 16 0 16 C-1.02224111 11.01657457 -1.3632306 6.07454515 -1 1 C-0.67 0.67 -0.34 0.34 0 0 Z " fill="#BA4CE0" transform="translate(135,22)"/>
<path d="M0 0 C7.75536526 -0.1094017 15.29597913 0.08011691 23 1 C23 4.96 23 8.92 23 13 C21.35 13 19.7 13 18 13 C19.32 12.67 20.64 12.34 22 12 C22 10.35 22 8.7 22 7 C15.4 7.33 8.8 7.66 2 8 C0 1 0 1 0 0 Z " fill="#895DE2" transform="translate(77,19)"/>
<path d="M0 0 C0.33 0 0.66 0 1 0 C1 7.26 1 14.52 1 22 C0.34 22 -0.32 22 -1 22 C-1 16.72 -1 11.44 -1 6 C-2.65 6.66 -4.3 7.32 -6 8 C-6.99 8 -7.98 8 -9 8 C-8.98839844 9.12277344 -8.97679687 10.24554688 -8.96484375 11.40234375 C-8.91048749 19.01306916 -8.90182265 26.4500307 -10 34 C-10.33 34 -10.66 34 -11 34 C-11 23.44 -11 12.88 -11 2 C-8.70961976 0.85480988 -7.46931463 0.92648088 -4.9375 1 C-3.638125 1 -2.33875 1 -1 1 C-0.67 0.67 -0.34 0.34 0 0 Z " fill="#B855DD" transform="translate(162,24)"/>
<path d="M0 0 C6.27 0 12.54 0 19 0 C19 2.31 19 4.62 19 7 C16.64561267 8.42944945 15.51967567 9.08661261 12.75 8.625 C12.1725 8.41875 11.595 8.2125 11 8 C11 7.34 11 6.68 11 6 C9.01432292 6.29296875 7.02864583 6.5859375 5.04296875 6.87890625 C3 7 3 7 0 6 C-0.33 6.99 -0.66 7.98 -1 9 C-0.67 6.03 -0.34 3.06 0 0 Z " fill="#3C7BF2" transform="translate(35,0)"/>
<path d="M0 0 C6.93 0 13.86 0 21 0 C21 1.65 21 3.3 21 5 C17.7 5 14.4 5 11 5 C11 9.29 11 13.58 11 18 C10.67 18 10.34 18 10 18 C9.67 13.05 9.34 8.1 9 3 C7.02 4.32 5.04 5.64 3 7 C2.01 7.66 1.02 8.32 0 9 C0 6.03 0 3.06 0 0 Z " fill="#A649E5" transform="translate(78,26)"/>
<path d="M0 0 C0.33 0 0.66 0 1 0 C1.06058594 0.71027344 1.12117188 1.42054688 1.18359375 2.15234375 C1.26738281 3.07144531 1.35117188 3.99054687 1.4375 4.9375 C1.51871094 5.85402344 1.59992188 6.77054688 1.68359375 7.71484375 C1.76044976 9.96159732 1.76044976 9.96159732 3 11 C3.33 10.34 3.66 9.68 4 9 C5.32 9 6.64 9 8 9 C8.33 9.66 8.66 10.32 9 11 C9.33 10.01 9.66 9.02 10 8 C13.63 8 17.26 8 21 8 C21 8.33 21 8.66 21 9 C16.545 9.495 16.545 9.495 12 10 C12.020625 10.969375 12.04125 11.93875 12.0625 12.9375 C12 16 12 16 11 17 C9.35659133 17.09854655 7.7088539 17.12972411 6.0625 17.125 C5.16660156 17.12757812 4.27070312 17.13015625 3.34765625 17.1328125 C1 17 1 17 -1 16 C-1.02692484 13.70839681 -1.04636124 11.41670454 -1.0625 9.125 C-1.07410156 7.84882813 -1.08570312 6.57265625 -1.09765625 5.2578125 C-1 2 -1 2 0 0 Z " fill="#5CA1DF" transform="translate(78,3)"/>
<path d="M0 0 C3.68623011 1.61272567 4.75355 2.630325 7 6 C6.625 8.1875 6.625 8.1875 6 10 C5.34 9.01 4.68 8.02 4 7 C0.93443402 6.26656572 0.93443402 6.26656572 -2 6 C-2 5.34 -2 4.68 -2 4 C-3.32 4 -4.64 4 -6 4 C-6.33 4.99 -6.66 5.98 -7 7 C-7.66 7 -8.32 7 -9 7 C-9 6.34 -9 5.68 -9 5 C-9.37125 5.474375 -9.7425 5.94875 -10.125 6.4375 C-12.62646962 8.52205802 -14.81593418 8.64621491 -18 9 C-17.43925205 5.76012297 -16.6830797 4.24780664 -14.0625 2.25 C-9.57711169 -0.74642435 -5.22798572 -0.82407233 0 0 Z " fill="#497FF9" transform="translate(19,0)"/>
<path d="M0 0 C14.27816729 -1.22093592 14.27816729 -1.22093592 18.36328125 1.67578125 C21.96829047 6.56893272 23.1504279 10.94983291 23.1875 17 C23.20167969 18.051875 23.21585938 19.10375 23.23046875 20.1875 C23 23 23 23 21 26 C21.05800781 25.0821875 21.11601562 24.164375 21.17578125 23.21875 C21.62447215 13.72302629 21.62447215 13.72302629 17.84375 5.2890625 C14.03939893 2.62924078 9.40509697 3.44454119 5 4 C5 4.99 5 5.98 5 7 C3.0625 6.3125 3.0625 6.3125 1 5 C0.37109375 2.41796875 0.37109375 2.41796875 0 0 Z " fill="#9756E5" transform="translate(5,24)"/>
<path d="M0 0 C0 5.61 0 11.22 0 17 C-0.33 17 -0.66 17 -1 17 C-1 13.04 -1 9.08 -1 5 C-2.32 5 -3.64 5 -5 5 C-5.28875 5.5775 -5.5775 6.155 -5.875 6.75 C-7 9 -7 9 -8.0625 10.75 C-9.45980692 14.10353662 -9.63903303 17.39033025 -10 21 C-10.33 21 -10.66 21 -11 21 C-11 14.4 -11 7.8 -11 1 C-7.57067929 -0.71466036 -3.78283935 -0.05404056 0 0 Z " fill="#AC42E3" transform="translate(187,23)"/>
<path d="M0 0 C1.64574566 -0.02688151 3.29161413 -0.04634123 4.9375 -0.0625 C5.85402344 -0.07410156 6.77054687 -0.08570312 7.71484375 -0.09765625 C10 0 10 0 11 1 C11.07271741 3.35313555 11.08370868 5.70833668 11.0625 8.0625 C11.05347656 9.35285156 11.04445312 10.64320312 11.03515625 11.97265625 C11.02355469 12.97167969 11.01195312 13.97070312 11 15 C11.66 15 12.32 15 13 15 C13 15.66 13 16.32 13 17 C11.35 16.67 9.7 16.34 8 16 C8.33 12.37 8.66 8.74 9 5 C6.36 5 3.72 5 1 5 C0.67 6.32 0.34 7.64 0 9 C-1.125 2.25 -1.125 2.25 0 0 Z " fill="#AE4BDC" transform="translate(121,23)"/>
<path d="M0 0 C0.33 0 0.66 0 1 0 C1 7.26 1 14.52 1 22 C-2.96 22.33 -6.92 22.66 -11 23 C-11 15.74 -11 8.48 -11 1 C-10.67 1 -10.34 1 -10 1 C-9.67 5.95 -9.34 10.9 -9 16 C-6.69 16.33 -4.38 16.66 -2 17 C-1.67 17.33 -1.34 17.66 -1 18 C-0.505 9.09 -0.505 9.09 0 0 Z " fill="#5A90DF" transform="translate(73,0)"/>
<path d="M0 0 C0.33 0 0.66 0 1 0 C1.02465098 4.96622349 1.04283649 9.93241166 1.05493164 14.89868164 C1.0599719 16.58944316 1.06680405 18.28020029 1.07543945 19.97094727 C1.08751857 22.39600707 1.09323123 24.82100944 1.09765625 27.24609375 C1.10281754 28.00651474 1.10797882 28.76693573 1.11329651 29.55039978 C1.11349238 31.3673257 1.06197277 33.18413127 1 35 C0 36 0 36 -2.25 36.1328125 C-3.1575 36.13023438 -4.065 36.12765625 -5 36.125 C-6.36125 36.12886719 -6.36125 36.12886719 -7.75 36.1328125 C-10 36 -10 36 -11 35 C-11.41221374 26.61832061 -11.41221374 26.61832061 -9 23 C-9 23.99 -9 24.98 -9 26 C-8.34 26.33 -7.68 26.66 -7 27 C-7.33 27.99 -7.66 28.98 -8 30 C-7.34 30.33 -6.68 30.66 -6 31 C-6 31.66 -6 32.32 -6 33 C-4.02 33.33 -2.04 33.66 0 34 C0 22.78 0 11.56 0 0 Z " fill="#E66DF1" transform="translate(187,22)"/>
<path d="M0 0 C0 3.3 0 6.6 0 10 C-0.33 10 -0.66 10 -1 10 C-1.33 8.35 -1.66 6.7 -2 5 C-2.66 5.66 -3.32 6.32 -4 7 C-5.32 7.33 -6.64 7.66 -8 8 C-8.99 12.95 -9.98 17.9 -11 23 C-11.33 23 -11.66 23 -12 23 C-11.22095672 7.25512528 -11.22095672 7.25512528 -9 0 C-5.61682513 -0.97591583 -3.4342662 -0.85856655 0 0 Z " fill="#BF46E1" transform="translate(42,28)"/>
<path d="M0 0 C1.51400391 0.01740234 1.51400391 0.01740234 3.05859375 0.03515625 C4.07050781 0.04417969 5.08242187 0.05320313 6.125 0.0625 C7.29869141 0.07990234 7.29869141 0.07990234 8.49609375 0.09765625 C8.16609375 2.73765625 7.83609375 5.37765625 7.49609375 8.09765625 C4.85609375 8.42765625 2.21609375 8.75765625 -0.50390625 9.09765625 C-0.50390625 8.43765625 -0.50390625 7.77765625 -0.50390625 7.09765625 C-1.49390625 7.09765625 -2.48390625 7.09765625 -3.50390625 7.09765625 C-3.54644981 5.09810879 -3.54471408 3.09723989 -3.50390625 1.09765625 C-2.50390625 0.09765625 -2.50390625 0.09765625 0 0 Z " fill="#3C7FF3" transform="translate(179.50390625,-0.09765625)"/>
<path d="M0 0 C2.83203125 0.03255208 5.6640625 0.06510417 8.49609375 0.09765625 C8.49609375 4.05765625 8.49609375 8.01765625 8.49609375 12.09765625 C8.16609375 12.09765625 7.83609375 12.09765625 7.49609375 12.09765625 C7.49609375 10.44765625 7.49609375 8.79765625 7.49609375 7.09765625 C2.41305689 6.98444769 2.41305689 6.98444769 -2.50390625 8.09765625 C-2.88453846 5.77157055 -3.2166057 3.43710361 -3.50390625 1.09765625 C-2.50390625 0.09765625 -2.50390625 0.09765625 0 0 Z " fill="#9F4CE4" transform="translate(65.50390625,21.90234375)"/>
<path d="M0 0 C5.94 0 11.88 0 18 0 C18 1.98 18 3.96 18 6 C17.67 5.34 17.34 4.68 17 4 C16.01 5.485 16.01 5.485 15 7 C14.01 6.34 13.02 5.68 12 5 C12 4.34 12 3.68 12 3 C5.62129602 2.51819263 5.62129602 2.51819263 0 5 C-0.80528889 7.05000871 -0.80528889 7.05000871 -1 9 C-2 7 -2 7 0 0 Z " fill="#3D75F0" transform="translate(124,0)"/>
<path d="M0 0 C0.33 0 0.66 0 1 0 C3.29612756 17.85649203 3.29612756 17.85649203 3 26 C2.34 25.34 1.68 24.68 1 24 C-1.17815365 23.79512527 -1.17815365 23.79512527 -3.5625 23.9375 C-5.04081272 23.99190191 -6.52082541 24.02026267 -8 24 C-8.33 23.67 -8.66 23.34 -9 23 C-9 21.35 -9 19.7 -9 18 C-5.7 18.33 -2.4 18.66 1 19 C0.67 12.73 0.34 6.46 0 0 Z " fill="#598FDD" transform="translate(54,0)"/>
<path d="M0 0 C1.98 0 3.96 0 6 0 C6 0.33 6 0.66 6 1 C4.35 1 2.7 1 1 1 C1.00523682 1.7520874 1.01047363 2.5041748 1.01586914 3.27905273 C1.03657227 6.66519342 1.04963877 10.05132084 1.0625 13.4375 C1.07087891 14.62150391 1.07925781 15.80550781 1.08789062 17.02539062 C1.09111328 18.15009766 1.09433594 19.27480469 1.09765625 20.43359375 C1.10289307 21.47572021 1.10812988 22.51784668 1.11352539 23.59155273 C1 26 1 26 0 27 C-1.83115883 27.09851171 -3.66619933 27.12972629 -5.5 27.125 C-6.5003125 27.12757812 -7.500625 27.13015625 -8.53125 27.1328125 C-11 27 -11 27 -12 26 C-12.14115161 23.32941149 -12.04247107 20.67567762 -12 18 C-11.34 17.67 -10.68 17.34 -10 17 C-9.67 19.31 -9.34 21.62 -9 24 C-6.03 24.33 -3.06 24.66 0 25 C0 16.75 0 8.5 0 0 Z " fill="#E56DE7" transform="translate(89,31)"/>
<path d="M0 0 C0.33 1.32 0.66 2.64 1 4 C1.99 3.34 2.98 2.68 4 2 C7.6875 2.375 7.6875 2.375 11 3 C12.20568053 7.67201205 12.09382426 12.21496292 12 17 C11.34 17.33 10.68 17.66 10 18 C10 13.38 10 8.76 10 4 C8.02 4.33 6.04 4.66 4 5 C1.6013606 8.7803118 1.62109186 12.92386192 1.375 17.3125 C1.30023438 18.56675781 1.22546875 19.82101563 1.1484375 21.11328125 C1.09945312 22.06589844 1.05046875 23.01851562 1 24 C0.67 24 0.34 24 0 24 C0 16.08 0 8.16 0 0 Z " fill="#BD4DDE" transform="translate(62,26)"/>
<path d="M0 0 C1.16959987 0.97566112 2.33561177 1.955625 3.5 2.9375 C4.1496875 3.48277344 4.799375 4.02804688 5.46875 4.58984375 C5.9740625 5.05519531 6.479375 5.52054688 7 6 C7 6.33 7 6.66 7 7 C2.38 7 -2.24 7 -7 7 C-7.33 7.99 -7.66 8.98 -8 10 C-11 6.375 -11 6.375 -11 3 C-7.37 3 -3.74 3 0 3 C0 2.01 0 1.02 0 0 Z " fill="#7B71DB" transform="translate(12,17)"/>
<path d="M0 0 C2.05164237 3.46214649 2 4.59389235 2 9 C-2.29 9 -6.58 9 -11 9 C-11 7.02 -11 5.04 -11 3 C-8.03 3.33 -5.06 3.66 -2 4 C-1.34 2.68 -0.68 1.36 0 0 Z " fill="#4B9FD8" transform="translate(26,8)"/>
<path d="M0 0 C3.63 0 7.26 0 11 0 C11.33 1.65 11.66 3.3 12 5 C11.01 5 10.02 5 9 5 C8.67 5.66 8.34 6.32 8 7 C5.03 6.67 2.06 6.34 -1 6 C-0.67 4.02 -0.34 2.04 0 0 Z " fill="#3D8EEC" transform="translate(35,6)"/>
<path d="M0 0 C7.74136601 -0.10920422 15.31395526 0.02840067 23 1 C22.67 1.99 22.34 2.98 22 4 C15.4 4 8.8 4 2 4 C1.34 2.68 0.68 1.36 0 0 Z " fill="#6B76E1" transform="translate(77,19)"/>
<path d="M0 0 C1.8871875 0.0309375 1.8871875 0.0309375 3.8125 0.0625 C3.5 2 3.5 2 2.8125 4.0625 C-0.1875 5.0625 -0.1875 5.0625 -2.1875 5.0625 C-1.8575 5.92875 -1.5275 6.795 -1.1875 7.6875 C-0.20018659 11.01968275 -0.02329026 13.61409538 -0.1875 17.0625 C-0.5175 17.0625 -0.8475 17.0625 -1.1875 17.0625 C-1.55875 15.4846875 -1.55875 15.4846875 -1.9375 13.875 C-2.95414535 10.22097033 -4.80231203 8.00423183 -7.1875 5.0625 C-7.1875 3.7425 -7.1875 2.4225 -7.1875 1.0625 C-4.43671116 0.14557039 -2.82801087 -0.04636083 0 0 Z " fill="#B43AEA" transform="translate(17.1875,26.9375)"/>
<path d="M0 0 C0.99 0.66 1.98 1.32 3 2 C4.32 2 5.64 2 7 2 C7 3.98 7 5.96 7 8 C3.7 8 0.4 8 -3 8 C-3.1875 5.125 -3.1875 5.125 -3 2 C-2.01 1.34 -1.02 0.68 0 0 Z " fill="#3FA5E2" transform="translate(125,10)"/>
<path d="M0 0 C3.96 0 7.92 0 12 0 C11.67 1.98 11.34 3.96 11 6 C7.37 6 3.74 6 0 6 C0 4.02 0 2.04 0 0 Z " fill="#7677E1" transform="translate(151,20)"/>
<path d="M0 0 C0.33 0 0.66 0 1 0 C1 1.98 1 3.96 1 6 C4.3 6 7.6 6 11 6 C11 8.31 11 10.62 11 13 C10.34 12.34 9.68 11.68 9 11 C7.07567281 10.93890744 7.07567281 10.93890744 5 11.3125 C4.29875 11.41175781 3.5975 11.51101562 2.875 11.61328125 C0.92039604 11.93258454 0.92039604 11.93258454 -1 13 C-0.67 8.71 -0.34 4.42 0 0 Z " fill="#717BDA" transform="translate(33,14)"/>
<path d="M0 0 C3.3 0 6.6 0 10 0 C10 3.3 10 6.6 10 10 C9.67 10 9.34 10 9 10 C8.67 8.02 8.34 6.04 8 4 C7.34 4 6.68 4 6 4 C6 4.66 6 5.32 6 6 C4.35 6 2.7 6 1 6 C0.67 7.32 0.34 8.64 0 10 C0 6.7 0 3.4 0 0 Z " fill="#3879F0" transform="translate(152,0)"/>
<path d="M0 0 C3.3 0 6.6 0 10 0 C10 2.64 10 5.28 10 8 C9.67 6.68 9.34 5.36 9 4 C8.34 4 7.68 4 7 4 C6.67 4.99 6.34 5.98 6 7 C4.33388095 7.042721 2.66617115 7.04063832 1 7 C0 6 0 6 -0.0625 2.9375 C-0.041875 1.968125 -0.02125 0.99875 0 0 Z " fill="#377BF4" transform="translate(63,0)"/>
<path d="M0 0 C1.20628008 2.33214148 2.1654738 4.49642139 3 7 C6.91402949 5.73058503 8.79072873 4.48832306 11 1 C10.67 3.97 10.34 6.94 10 10 C6.37 10 2.74 10 -1 10 C-2.10191901 5.59232396 -1.58706842 4.1077065 0 0 Z " fill="#EA69E7" transform="translate(31,48)"/>
<path d="M0 0 C3.63 0 7.26 0 11 0 C11 1.32 11 2.64 11 4 C11.66 4.33 12.32 4.66 13 5 C11 5 9 5 7 5 C6.67 5.99 6.34 6.98 6 8 C4.68 7.01 3.36 6.02 2 5 C1.67 5.66 1.34 6.32 1 7 C0.67 4.69 0.34 2.38 0 0 Z " fill="#DD48ED" transform="translate(0,42)"/>
<path d="M0 0 C7.59 0 15.18 0 23 0 C22.67 2.31 22.34 4.62 22 7 C21.67 7 21.34 7 21 7 C21 5.35 21 3.7 21 2 C14.73 2 8.46 2 2 2 C1.67 3.32 1.34 4.64 1 6 C0.67 4.02 0.34 2.04 0 0 Z " fill="#3477F1" transform="translate(78,0)"/>
<path d="M0 0 C0.66 0 1.32 0 2 0 C2 1.65 2 3.3 2 5 C2.99 5 3.98 5 5 5 C5.66 3.35 6.32 1.7 7 0 C7.33 0 7.66 0 8 0 C8.33 2.97 8.66 5.94 9 9 C5.7 9 2.4 9 -1 9 C-1.09765625 2.84765625 -1.09765625 2.84765625 -1 1 C-0.67 0.67 -0.34 0.34 0 0 Z " fill="#F55BF0" transform="translate(50,49)"/>
<path d="M0 0 C0 0.66 0 1.32 0 2 C-1.32 1.67 -2.64 1.34 -4 1 C-4 2.65 -4 4.3 -4 6 C-4.66 6 -5.32 6 -6 6 C-6 5.34 -6 4.68 -6 4 C-6.37125 4.474375 -6.7425 4.94875 -7.125 5.4375 C-9.62646962 7.52205802 -11.81593418 7.64621491 -15 8 C-14.69025617 5.10905762 -13.95829554 3.95308249 -12 1.75 C-7.93075448 -0.62372655 -4.59948687 -0.36074407 0 0 Z " fill="#3B73EC" transform="translate(16,1)"/>
<path d="M0 0 C2.475 0.99 2.475 0.99 5 2 C5 2.66 5 3.32 5 4 C7.47266765 3.65555119 7.47266765 3.65555119 10 3 C10.33 2.34 10.66 1.68 11 1 C11.38218767 2.65614657 11.71395102 4.32457024 12 6 C11 7 11 7 8.49609375 7.09765625 C6.98208984 7.08025391 6.98208984 7.08025391 5.4375 7.0625 C4.42558594 7.05347656 3.41367188 7.04445313 2.37109375 7.03515625 C1.58863281 7.02355469 0.80617187 7.01195312 0 7 C-1.04449911 3.86650268 -0.93423645 3.01031744 0 0 Z " fill="#F46BEB" transform="translate(137,51)"/>
<path d="M0 0 C1.69752187 0.25245197 3.38471545 0.57645775 5.0625 0.9375 C5.98160156 1.13214844 6.90070313 1.32679687 7.84765625 1.52734375 C8.91306641 1.76130859 8.91306641 1.76130859 10 2 C10 3.32 10 4.64 10 6 C7.03 6 4.06 6 1 6 C0.34 7.32 -0.32 8.64 -1 10 C-1.02689216 8.52093108 -1.04634621 7.04172517 -1.0625 5.5625 C-1.07410156 4.73878906 -1.08570313 3.91507813 -1.09765625 3.06640625 C-1 1 -1 1 0 0 Z " fill="#915CE2" transform="translate(135,22)"/>
<path d="M0 0 C2.0078125 0.5234375 2.0078125 0.5234375 3.75390625 2.65234375 C5.19934565 5.96199472 5.31377733 8.24250443 5.1953125 11.8359375 C5.16824219 12.90457031 5.14117187 13.97320312 5.11328125 15.07421875 C5.07847656 15.88246094 5.04367188 16.69070312 5.0078125 17.5234375 C4.6778125 17.5234375 4.3478125 17.5234375 4.0078125 17.5234375 C3.3478125 13.2334375 2.6878125 8.9434375 2.0078125 4.5234375 C-0.6321875 4.1934375 -3.2721875 3.8634375 -5.9921875 3.5234375 C-5.9921875 5.8334375 -5.9921875 8.1434375 -5.9921875 10.5234375 C-6.3221875 10.5234375 -6.6521875 10.5234375 -6.9921875 10.5234375 C-7.01907966 9.04436858 -7.03853371 7.56516267 -7.0546875 6.0859375 C-7.06628906 5.26222656 -7.07789063 4.43851563 -7.08984375 3.58984375 C-6.88446097 -0.75605582 -3.69291642 0.25891296 0 0 Z " fill="#9B5CDC" transform="translate(52.9921875,22.4765625)"/>
<path d="M0 0 C0.33 0 0.66 0 1 0 C1 2.31 1 4.62 1 7 C-0.47831221 7.19412181 -1.95769316 7.38012131 -3.4375 7.5625 C-4.26121094 7.66691406 -5.08492188 7.77132813 -5.93359375 7.87890625 C-6.61550781 7.91886719 -7.29742187 7.95882813 -8 8 C-9 7 -9 7 -9.0625 4.4375 C-9.041875 3.633125 -9.02125 2.82875 -9 2 C-8.01 2.495 -8.01 2.495 -7 3 C-6.67 2.34 -6.34 1.68 -6 1 C-4.68 1 -3.36 1 -2 1 C-1.67 1.66 -1.34 2.32 -1 3 C-0.67 2.01 -0.34 1.02 0 0 Z " fill="#3CA1E3" transform="translate(88,11)"/>
<path d="M0 0 C0.33 1.32 0.66 2.64 1 4 C2.12019531 3.91621094 3.24039063 3.83242188 4.39453125 3.74609375 C5.86716556 3.64291555 7.33982308 3.54006821 8.8125 3.4375 C9.55048828 3.38142578 10.28847656 3.32535156 11.04882812 3.26757812 C14.36788516 3.04230276 16.81232564 2.93744188 20 4 C20 4.66 20 5.32 20 6 C13.07 6 6.14 6 -1 6 C-0.67 4.02 -0.34 2.04 0 0 Z " fill="#FA61F0" transform="translate(153,52)"/>
<path d="M0 0 C1.22589844 0.01353516 1.22589844 0.01353516 2.4765625 0.02734375 C3.41628906 0.04474609 3.41628906 0.04474609 4.375 0.0625 C4.375 1.0525 4.375 2.0425 4.375 3.0625 C1.075 3.0625 -2.225 3.0625 -5.625 3.0625 C-5.625 9.0025 -5.625 14.9425 -5.625 21.0625 C-5.955 21.0625 -6.285 21.0625 -6.625 21.0625 C-6.625 14.4625 -6.625 7.8625 -6.625 1.0625 C-4.21954362 -0.14022819 -2.67503047 -0.03821472 0 0 Z " fill="#9460DA" transform="translate(182.625,22.9375)"/>
<path d="M0 0 C3.63 0 7.26 0 11 0 C11 0.99 11 1.98 11 3 C7.7 3 4.4 3 1 3 C1 7.29 1 11.58 1 16 C0.67 16 0.34 16 0 16 C0 10.72 0 5.44 0 0 Z " fill="#B637E7" transform="translate(88,28)"/>
<path d="M0 0 C2.64 0 5.28 0 8 0 C10.60018816 3.90028225 10.15085514 7.47434569 10 12 C9.67 12 9.34 12 9 12 C8.67 9.69 8.34 7.38 8 5 C5.36 5 2.72 5 0 5 C0 3.35 0 1.7 0 0 Z " fill="#AC3FE7" transform="translate(47,26)"/>
<path d="M0 0 C1.9451 2.91765 2.45276317 4.62537285 3 8 C-1.61073111 9.29676812 -5.33840089 8.71109139 -10 8 C-9.67 7.01 -9.34 6.02 -9 5 C-5.79336115 5 -3.09319586 5.14670459 0 6 C0 4.02 0 2.04 0 0 Z " fill="#529AE3" transform="translate(10,12)"/>
<path d="M0 0 C3.3 0 6.6 0 10 0 C10.33 1.65 10.66 3.3 11 5 C7.37 4.67 3.74 4.34 0 4 C0 2.68 0 1.36 0 0 Z " fill="#6984DF" transform="translate(134,19)"/>
<path d="M0 0 C2.64 0 5.28 0 8 0 C8 1.65 8 3.3 8 5 C6.68 5 5.36 5 4 5 C0.52859548 5.76429774 0.52859548 5.76429774 -1 10 C-0.67 6.7 -0.34 3.4 0 0 Z " fill="#BA39EC" transform="translate(122,28)"/>
<path d="M0 0 C0.66 0.99 1.32 1.98 2 3 C4.97903963 4.15317663 5.86559131 4.0448029 9 3 C9.33 2.34 9.66 1.68 10 1 C10.33 2.98 10.66 4.96 11 7 C7.37 7 3.74 7 0 7 C-1 2 -1 2 0 0 Z " fill="#44AAEA" transform="translate(151,13)"/>
<path d="M0 0 C0.33 0 0.66 0 1 0 C1 1.65 1 3.3 1 5 C4.3 5 7.6 5 11 5 C10.67 6.32 10.34 7.64 10 9 C6.7 8.67 3.4 8.34 0 8 C0 5.36 0 2.72 0 0 Z " fill="#6981DD" transform="translate(121,15)"/>
<path d="M0 0 C-1 3 -1 3 -3 4 C-3 4.66 -3 5.32 -3 6 C-6.3 6 -9.6 6 -13 6 C-11.66876597 3.33753193 -10.3235622 3.05398348 -7.625 1.875 C-6.83351563 1.52179687 -6.04203125 1.16859375 -5.2265625 0.8046875 C-3 0 -3 0 0 0 Z " fill="#FA56F1" transform="translate(23,52)"/>
<path d="M0 0 C0 1.32 0 2.64 0 4 C-3.32534757 5.10844919 -5.62182575 4.84454356 -9 4 C-9.33 4.99 -9.66 5.98 -10 7 C-9.75 4.625 -9.75 4.625 -9 2 C-6.09557968 -0.17831524 -3.54875053 -0.19715281 0 0 Z " fill="#9C4FE8" transform="translate(42,24)"/>
<path d="M0 0 C3.63 0 7.26 0 11 0 C10.67 1.32 10.34 2.64 10 4 C6.37 4 2.74 4 -1 4 C-0.67 2.68 -0.34 1.36 0 0 Z " fill="#7E6AE1" transform="translate(63,22)"/>
<path d="M0 0 C1.23556641 0.01740234 1.23556641 0.01740234 2.49609375 0.03515625 C3.32238281 0.04417969 4.14867187 0.05320312 5 0.0625 C5.63808594 0.07410156 6.27617188 0.08570313 6.93359375 0.09765625 C7.26359375 0.75765625 7.59359375 1.41765625 7.93359375 2.09765625 C6.61359375 2.09765625 5.29359375 2.09765625 3.93359375 2.09765625 C3.93359375 3.41765625 3.93359375 4.73765625 3.93359375 6.09765625 C2.28359375 6.09765625 0.63359375 6.09765625 -1.06640625 6.09765625 C-1.06640625 4.77765625 -1.06640625 3.45765625 -1.06640625 2.09765625 C-1.72640625 1.76765625 -2.38640625 1.43765625 -3.06640625 1.09765625 C-2.06640625 0.09765625 -2.06640625 0.09765625 0 0 Z " fill="#3CA2E8" transform="translate(36.06640625,11.90234375)"/>
<path d="M0 0 C2.70466795 0.99171158 3.79092489 1.58842906 5.1171875 4.19921875 C6.09885323 7.31361842 6.2663422 9.86473176 6.25 13.125 C6.25515625 14.15882812 6.2603125 15.19265625 6.265625 16.2578125 C6 19 6 19 4 22 C4.06960937 20.58847656 4.06960937 20.58847656 4.140625 19.1484375 C4.56128545 9.74110514 4.56128545 9.74110514 0 2 C0 1.34 0 0.68 0 0 Z " fill="#BB56D6" transform="translate(22,28)"/>
<path d="M0 0 C0.33 0 0.66 0 1 0 C1.33 3.3 1.66 6.6 2 10 C-0.31 10 -2.62 10 -5 10 C-4.34 7.69 -3.68 5.38 -3 3 C-2.01 3.33 -1.02 3.66 0 4 C0 2.68 0 1.36 0 0 Z " fill="#3C9EE4" transform="translate(142,8)"/>
<path d="M0 0 C0.33 0 0.66 0 1 0 C1 2.97 1 5.94 1 9 C-2.96 8.67 -6.92 8.34 -11 8 C-11 7.34 -11 6.68 -11 6 C-7.7 6 -4.4 6 -1 6 C-0.67 4.02 -0.34 2.04 0 0 Z " fill="#3F92E3" transform="translate(100,3)"/>
<path d="M0 0 C1.64574566 -0.02688151 3.29161413 -0.04634123 4.9375 -0.0625 C5.85402344 -0.07410156 6.77054687 -0.08570312 7.71484375 -0.09765625 C10 0 10 0 11 1 C11.14115161 3.67058851 11.04247107 6.32432238 11 9 C10.67 9 10.34 9 10 9 C9.67 7.02 9.34 5.04 9 3 C3.91696314 2.88679144 3.91696314 2.88679144 -1 4 C-0.67 2.68 -0.34 1.36 0 0 Z " fill="#8C67DE" transform="translate(121,23)"/>
<path d="M0 0 C1.32 0.99 2.64 1.98 4 3 C3.67 3.99 3.34 4.98 3 6 C-1.62 6 -6.24 6 -11 6 C-11 5.01 -11 4.02 -11 3 C-7.37 3 -3.74 3 0 3 C0 2.01 0 1.02 0 0 Z " fill="#6783DB" transform="translate(12,17)"/>
<path d="M0 0 C0.33 0 0.66 0 1 0 C1.33 4.95 1.66 9.9 2 15 C4.31 15.33 6.62 15.66 9 16 C9.33 16.66 9.66 17.32 10 18 C6.7 18 3.4 18 0 18 C0 12.06 0 6.12 0 0 Z " fill="#4998DB" transform="translate(62,1)"/>
<path d="M0 0 C2.31 0 4.62 0 7 0 C5.37660195 1.70884005 3.70680947 3.37446717 2 5 C1.34 5 0.68 5 0 5 C-0.33 6.32 -0.66 7.64 -1 9 C-2.60031344 5.79937313 -1.03173691 3.27728194 0 0 Z " fill="#2D6BDB" transform="translate(124,0)"/>
<path d="M0 0 C0.66 0.33 1.32 0.66 2 1 C2 1.66 2 2.32 2 3 C2.66 3 3.32 3 4 3 C4.33 3.99 4.66 4.98 5 6 C2.36 6 -0.28 6 -3 6 C-3 4.68 -3 3.36 -3 2 C-2.01 1.34 -1.02 0.68 0 0 Z " fill="#3A92E9" transform="translate(4,7)"/>
<path d="M0 0 C0.33 0 0.66 0 1 0 C1 2.97 1 5.94 1 9 C0.34 8.34 -0.32 7.68 -1 7 C-3.17815365 6.79512527 -3.17815365 6.79512527 -5.5625 6.9375 C-7.04081272 6.99190191 -8.52082541 7.02026267 -10 7 C-11 6 -11 6 -11.0625 3.4375 C-11.041875 2.633125 -11.02125 1.82875 -11 1 C-10.34 2.32 -9.68 3.64 -9 5 C-6.03 5 -3.06 5 0 5 C0 3.35 0 1.7 0 0 Z " fill="#7A85D3" transform="translate(56,17)"/>
<path d="M0 0 C4.29 0 8.58 0 13 0 C13 0.99 13 1.98 13 3 C9.04 3 5.08 3 1 3 C0.67 2.01 0.34 1.02 0 0 Z " fill="#6887E8" transform="translate(77,19)"/>
<path d="M0 0 C0.99 0.66 1.98 1.32 3 2 C4.32 2 5.64 2 7 2 C6.67 3.32 6.34 4.64 6 6 C6 5.34 6 4.68 6 4 C3.36 4.66 0.72 5.32 -2 6 C-2 4.35 -2 2.7 -2 1 C-1.34 0.67 -0.68 0.34 0 0 Z " fill="#359BE5" transform="translate(125,10)"/>
<path d="M0 0 C0.33 0.99 0.66 1.98 1 3 C1.66 3.33 2.32 3.66 3 4 C2.67 4.99 2.34 5.98 2 7 C2.66 7.33 3.32 7.66 4 8 C3.67 8.99 3.34 9.98 3 11 C2.01 11 1.02 11 0 11 C-1.28571429 3.57142857 -1.28571429 3.57142857 0 0 Z " fill="#EE55EE" transform="translate(177,45)"/>
<path d="M0 0 C0.66 0 1.32 0 2 0 C2 0.66 2 1.32 2 2 C2.8971875 2.1546875 2.8971875 2.1546875 3.8125 2.3125 C6.28243264 3.08876455 7.32251235 4.07088921 9 6 C8.67 6.66 8.34 7.32 8 8 C2.33846154 5.66153846 2.33846154 5.66153846 0.625 2.3125 C0.41875 1.549375 0.2125 0.78625 0 0 Z " fill="#E45DDD" transform="translate(1,50)"/>
<path d="M0 0 C-2.36620011 2.61527381 -4.942048 4.26440562 -8 6 C-8 4.35 -8 2.7 -8 1 C-5.29120665 -0.35439668 -2.99066732 -0.06501451 0 0 Z " fill="#B838EB" transform="translate(87,28)"/>
<path d="M0 0 C2.3828125 -0.29296875 2.3828125 -0.29296875 5.125 -0.1875 C6.03507813 -0.16042969 6.94515625 -0.13335938 7.8828125 -0.10546875 C8.58148438 -0.07066406 9.28015625 -0.03585937 10 0 C10 0.66 10 1.32 10 2 C4.06 2.495 4.06 2.495 -2 3 C-1.34 2.01 -0.68 1.02 0 0 Z " fill="#3071F5" transform="translate(131,0)"/>
<path d="M0 0 C2.625 0.375 2.625 0.375 5 1 C5 4.3 5 7.6 5 11 C4.67 11 4.34 11 4 11 C4 8.36 4 5.72 4 3 C3.38125 3.20625 2.7625 3.4125 2.125 3.625 C1.42375 3.74875 0.7225 3.8725 0 4 C-0.66 3.34 -1.32 2.68 -2 2 C-1.34 1.34 -0.68 0.68 0 0 Z " fill="#B13AE0" transform="translate(37,27)"/>
<path d="M0 0 C0.33 0 0.66 0 1 0 C3.14285714 7.42857143 3.14285714 7.42857143 4 11 C2.68 11 1.36 11 0 11 C0 7.37 0 3.74 0 0 Z " fill="#34A5F2" transform="translate(177,7)"/>
<path d="M0 0 C2.71928517 0.37507382 3.84218661 0.84218661 5.8125 2.8125 C7 5 7 5 6.6875 7.25 C6.460625 7.8275 6.23375 8.405 6 9 C5.38125 8.030625 4.7625 7.06125 4.125 6.0625 C2.34321154 2.97164638 2.34321154 2.97164638 0 2 C0 1.34 0 0.68 0 0 Z " fill="#497EDB" transform="translate(19,1)"/>
<path d="M0 0 C1.76462683 3.08809695 2 4.23312136 2 8 C1.34 8 0.68 8 0 8 C-0.33 8.66 -0.66 9.32 -1 10 C-2.46726798 6.18510326 -1.43336419 3.70988378 0 0 Z " fill="#E85FE7" transform="translate(31,48)"/>
<path d="M0 0 C0.66 0.66 1.32 1.32 2 2 C1.625 4.125 1.625 4.125 1 6 C-0.65 5.67 -2.3 5.34 -4 5 C-3.34 4.01 -2.68 3.02 -2 2 C-1.34 2 -0.68 2 0 2 C0 1.34 0 0.68 0 0 Z " fill="#E046EC" transform="translate(18,42)"/>
<path d="M0 0 C2.475 0.99 2.475 0.99 5 2 C4.67 2.99 4.34 3.98 4 5 C2.35 5 0.7 5 -1 5 C-0.67 3.35 -0.34 1.7 0 0 Z " fill="#F953F3" transform="translate(137,51)"/>
<path d="M0 0 C1.32 0.33 2.64 0.66 4 1 C2.35 2.98 0.7 4.96 -1 7 C-1.99 6.67 -2.98 6.34 -4 6 C-3.01 5.34 -2.02 4.68 -1 4 C-0.27617533 1.94074861 -0.27617533 1.94074861 0 0 Z " fill="#E96BE3" transform="translate(23,50)"/>
<path d="M0 0 C1.65 0 3.3 0 5 0 C3.62845496 2.95409701 2.01136276 5.44008376 0 8 C0 5.36 0 2.72 0 0 Z " fill="#BD40EA" transform="translate(177,28)"/>
<path d="M0 0 C0.66 0 1.32 0 2 0 C2.92844389 4.33273814 2.92844389 7.66726186 2 12 C1.67 12 1.34 12 1 12 C0.67 8.04 0.34 4.08 0 0 Z " fill="#D843ED" transform="translate(24,38)"/>
<path d="M0 0 C1.65 0.33 3.3 0.66 5 1 C5 1.99 5 2.98 5 4 C3.35 3.67 1.7 3.34 0 3 C0 2.01 0 1.02 0 0 Z " fill="#38A7E2" transform="translate(5,14)"/>
<path d="M0 0 C0 0.33 0 0.66 0 1 C-2.97 1 -5.94 1 -9 1 C-9 0.34 -9 -0.32 -9 -1 C-5.23375329 -2.25541557 -3.62811066 -1.37061958 0 0 Z " fill="#FD6AF6" transform="translate(40,57)"/>
<path d="M0 0 C0 2.31 0 4.62 0 7 C-0.99 7 -1.98 7 -3 7 C-3 5.02 -3 3.04 -3 1 C-1 0 -1 0 0 0 Z " fill="#E946F7" transform="translate(25,44)"/>
<path d="M0 0 C0 0.33 0 0.66 0 1 C-1.11375 1.2475 -2.2275 1.495 -3.375 1.75 C-7.04615198 2.61005339 -7.04615198 2.61005339 -8.4375 5.125 C-8.623125 5.74375 -8.80875 6.3625 -9 7 C-9.33 5.35 -9.66 3.7 -10 2 C-6.3558226 -0.4294516 -4.28758728 -0.16179575 0 0 Z " fill="#9E51E2" transform="translate(130,25)"/>
<path d="M0 0 C1.953125 0.7109375 1.953125 0.7109375 4 2 C4.609375 4.1640625 4.609375 4.1640625 4.75 6.625 C4.80671875 7.44226562 4.8634375 8.25953125 4.921875 9.1015625 C4.94765625 9.72804688 4.9734375 10.35453125 5 11 C4.67 11 4.34 11 4 11 C3.71125 9.9275 3.4225 8.855 3.125 7.75 C2.27179891 4.90599636 1.4363497 2.56491017 0 0 Z " fill="#BA51D3" transform="translate(12,33)"/>
<path d="M0 0 C0 1.32 0 2.64 0 4 C-0.99 3.67 -1.98 3.34 -3 3 C-3.99 3.33 -4.98 3.66 -6 4 C-6 3.01 -6 2.02 -6 1 C-3 0 -3 0 0 0 Z " fill="#3789F2" transform="translate(46,6)"/>
<path d="M0 0 C0.33 1.32 0.66 2.64 1 4 C-0.65 4.66 -2.3 5.32 -4 6 C-3.6875 4.125 -3.6875 4.125 -3 2 C-2.01 1.34 -1.02 0.68 0 0 Z " fill="#4278E0" transform="translate(5,3)"/>
</svg>
